<?xml version="1.0" encoding="UTF-8"?>
<svg width="700pt" height="700pt" version="1.1" viewBox="0 0 700 700" xmlns="http://www.w3.org/2000/svg" xmlns:xlink="http://www.w3.org/1999/xlink">
 <defs>
  <symbol id="s" overflow="visible">
   <path d="m28-1.6719c-1.4375 0.75-2.9453 1.3125-4.5156 1.6875-1.5625 0.38281-3.1953 0.57812-4.8906 0.57812-5.0742 0-9.0938-1.4141-12.062-4.25-2.9688-2.8438-4.4531-6.6914-4.4531-11.547 0-4.875 1.4844-8.7266 4.4531-11.562 2.9688-2.832 6.9883-4.25 12.062-4.25 1.6953 0 3.3281 0.19531 4.8906 0.57812 1.5703 0.375 3.0781 0.9375 4.5156 1.6875v6.2969c-1.4609-0.98828-2.8984-1.7109-4.3125-2.1719-1.4062-0.46875-2.8984-0.70312-4.4688-0.70312-2.8047 0-5.0078 0.90234-6.6094 2.7031-1.6055 1.793-2.4062 4.2656-2.4062 7.4219 0 3.1484 0.80078 5.6172 2.4062 7.4062 1.6016 1.793 3.8047 2.6875 6.6094 2.6875 1.5703 0 3.0625-0.22656 4.4688-0.6875 1.4141-0.45703 2.8516-1.1875 4.3125-2.1875z"/>
  </symbol>
  <symbol id="c" overflow="visible">
   <path d="m20.484-16.641c-0.63672-0.28906-1.2734-0.50781-1.9062-0.65625-0.625-0.14453-1.2617-0.21875-1.9062-0.21875-1.875 0-3.3242 0.60547-4.3438 1.8125-1.0117 1.2109-1.5156 2.9336-1.5156 5.1719v10.531h-7.2969v-22.859h7.2969v3.75c0.9375-1.4883 2.0156-2.5781 3.2344-3.2656s2.6758-1.0312 4.375-1.0312c0.25 0 0.51562 0.011719 0.79688 0.03125 0.28906 0.023438 0.70703 0.0625 1.25 0.125z"/>
  </symbol>
  <symbol id="b" overflow="visible">
   <path d="m26.328-11.484v2.0781h-17.078c0.17578 1.7109 0.78906 2.9961 1.8438 3.8594 1.0625 0.85547 2.5469 1.2812 4.4531 1.2812 1.5391 0 3.1133-0.22266 4.7188-0.67188 1.6133-0.45703 3.2734-1.1484 4.9844-2.0781v5.625c-1.7305 0.65625-3.4609 1.1523-5.1875 1.4844-1.7305 0.33203-3.4609 0.5-5.1875 0.5-4.1367 0-7.3516-1.0508-9.6406-3.1562-2.293-2.1016-3.4375-5.0508-3.4375-8.8438 0-3.7266 1.125-6.6602 3.375-8.7969 2.25-2.1328 5.3477-3.2031 9.2969-3.2031 3.5938 0 6.4688 1.0859 8.625 3.25 2.1562 2.1562 3.2344 5.0469 3.2344 8.6719zm-7.5156-2.4375c0-1.3828-0.40625-2.5-1.2188-3.3438-0.80469-0.85156-1.8594-1.2812-3.1719-1.2812-1.4062 0-2.5547 0.40234-3.4375 1.2031-0.88672 0.79297-1.4375 1.9336-1.6562 3.4219z"/>
  </symbol>
  <symbol id="j" overflow="visible">
   <path d="m13.75-10.281c-1.5234 0-2.668 0.26172-3.4375 0.78125-0.77344 0.51172-1.1562 1.2734-1.1562 2.2812 0 0.91797 0.30469 1.6406 0.92188 2.1719 0.625 0.52344 1.4883 0.78125 2.5938 0.78125 1.375 0 2.5312-0.48828 3.4688-1.4688 0.9375-0.98828 1.4062-2.2266 1.4062-3.7188v-0.82812zm11.172-2.7656v13.047h-7.375v-3.3906c-0.98047 1.3867-2.0859 2.3984-3.3125 3.0312-1.2188 0.63281-2.7031 0.95312-4.4531 0.95312-2.375 0-4.3047-0.6875-5.7812-2.0625-1.4688-1.3828-2.2031-3.1797-2.2031-5.3906 0-2.6758 0.92188-4.6406 2.7656-5.8906 1.8438-1.2578 4.7383-1.8906 8.6875-1.8906h4.2969v-0.5625c0-1.1562-0.46094-2-1.375-2.5312-0.90625-0.53906-2.3242-0.8125-4.25-0.8125-1.5625 0-3.0234 0.15625-4.375 0.46875-1.3438 0.3125-2.5938 0.78125-3.75 1.4062v-5.5781c1.5625-0.375 3.1289-0.66016 4.7031-0.85938 1.582-0.19531 3.1641-0.29688 4.75-0.29688 4.1133 0 7.0859 0.8125 8.9219 2.4375 1.832 1.625 2.75 4.2656 2.75 7.9219z"/>
  </symbol>
  <symbol id="a" overflow="visible">
   <path d="m11.484-29.344v6.4844h7.5312v5.2188h-7.5312v9.7031c0 1.0625 0.20703 1.7812 0.625 2.1562 0.42578 0.375 1.2695 0.5625 2.5312 0.5625h3.75v5.2188h-6.2656c-2.8867 0-4.9336-0.59766-6.1406-1.7969-1.1992-1.207-1.7969-3.2539-1.7969-6.1406v-9.7031h-3.6406v-5.2188h3.6406v-6.4844z"/>
  </symbol>
  <symbol id="i" overflow="visible">
   <path d="m19.062-19.516v-12.234h7.3438v31.75h-7.3438v-3.3125c-1.0117 1.3555-2.1211 2.3438-3.3281 2.9688-1.2109 0.625-2.6094 0.9375-4.2031 0.9375-2.8125 0-5.125-1.1172-6.9375-3.3594-1.8125-2.2383-2.7188-5.1172-2.7188-8.6406 0-3.5195 0.90625-6.3984 2.7188-8.6406 1.8125-2.2383 4.125-3.3594 6.9375-3.3594 1.5703 0 2.9688 0.32031 4.1875 0.95312 1.2188 0.625 2.332 1.6055 3.3438 2.9375zm-4.8125 14.797c1.5625 0 2.7539-0.56641 3.5781-1.7031 0.82031-1.1445 1.2344-2.8047 1.2344-4.9844 0-2.1758-0.41406-3.8359-1.2344-4.9844-0.82422-1.1445-2.0156-1.7188-3.5781-1.7188-1.5547 0-2.7422 0.57422-3.5625 1.7188-0.82422 1.1484-1.2344 2.8086-1.2344 4.9844 0 2.1797 0.41016 3.8398 1.2344 4.9844 0.82031 1.1367 2.0078 1.7031 3.5625 1.7031z"/>
  </symbol>
  <symbol id="h" overflow="visible">
   <path d="m15.672-4.7188c1.5625 0 2.7539-0.56641 3.5781-1.7031 0.82031-1.1445 1.2344-2.8047 1.2344-4.9844 0-2.1758-0.41406-3.8359-1.2344-4.9844-0.82422-1.1445-2.0156-1.7188-3.5781-1.7188s-2.7656 0.57812-3.6094 1.7344c-0.83594 1.1484-1.25 2.8047-1.25 4.9688 0 2.168 0.41406 3.8242 1.25 4.9688 0.84375 1.1484 2.0469 1.7188 3.6094 1.7188zm-4.8594-14.797c1.0078-1.332 2.125-2.3125 3.3438-2.9375 1.2266-0.63281 2.6406-0.95312 4.2344-0.95312 2.8125 0 5.125 1.1211 6.9375 3.3594 1.8125 2.2422 2.7188 5.1211 2.7188 8.6406 0 3.5234-0.90625 6.4023-2.7188 8.6406-1.8125 2.2422-4.125 3.3594-6.9375 3.3594-1.5938 0-3.0078-0.32031-4.2344-0.95312-1.2188-0.63281-2.3359-1.6172-3.3438-2.9531v3.3125h-7.2969v-31.75h7.2969z"/>
  </symbol>
  <symbol id="g" overflow="visible">
   <path d="m0.51562-22.859h7.2969l6.1406 15.516 5.2344-15.516h7.2969l-9.6094 25.016c-0.96875 2.5508-2.0938 4.332-3.375 5.3438-1.2812 1.0078-2.9805 1.5156-5.0938 1.5156h-4.2188v-4.7969h2.2812c1.2383 0 2.1406-0.19922 2.7031-0.59375 0.5625-0.38672 1-1.0898 1.3125-2.1094l0.20312-0.64062z"/>
  </symbol>
  <symbol id="f" overflow="visible">
   <path d="m0.20312-30.469h7.9062l8.0781 22.484 8.0625-22.484h7.8906l-11.281 30.469h-9.375z"/>
  </symbol>
  <symbol id="r" overflow="visible">
   <path d="m21.984-22.141v5.9531c-1-0.67578-2-1.1758-3-1.5-1-0.33203-2.0391-0.5-3.1094-0.5-2.043 0-3.6328 0.60156-4.7656 1.7969-1.1367 1.1875-1.7031 2.8516-1.7031 4.9844 0 2.1367 0.56641 3.8047 1.7031 5 1.1328 1.1875 2.7227 1.7812 4.7656 1.7812 1.1445 0 2.2266-0.17188 3.25-0.51562 1.0312-0.34375 1.9844-0.84766 2.8594-1.5156v5.9844c-1.1484 0.41797-2.3086 0.72656-3.4844 0.9375-1.1797 0.21875-2.3594 0.32812-3.5469 0.32812-4.1172 0-7.3398-1.0547-9.6719-3.1719-2.3242-2.1133-3.4844-5.0547-3.4844-8.8281 0-3.7695 1.1602-6.7109 3.4844-8.8281 2.332-2.1133 5.5547-3.1719 9.6719-3.1719 1.1953 0 2.3789 0.10547 3.5469 0.3125 1.1641 0.21094 2.3281 0.52734 3.4844 0.95312z"/>
  </symbol>
  <symbol id="e" overflow="visible">
   <path d="m14.391-18.188c-1.625 0-2.8672 0.58594-3.7188 1.75-0.84375 1.168-1.2656 2.8438-1.2656 5.0312s0.42188 3.8672 1.2656 5.0312c0.85156 1.168 2.0938 1.75 3.7188 1.75 1.5938 0 2.8125-0.58203 3.6562-1.75 0.84375-1.1641 1.2656-2.8438 1.2656-5.0312s-0.42188-3.8633-1.2656-5.0312c-0.84375-1.1641-2.0625-1.75-3.6562-1.75zm0-5.2188c3.9258 0 6.9922 1.0625 9.2031 3.1875 2.2188 2.1172 3.3281 5.0547 3.3281 8.8125 0 3.75-1.1094 6.6875-3.3281 8.8125-2.2109 2.125-5.2773 3.1875-9.2031 3.1875-3.9492 0-7.0391-1.0625-9.2656-3.1875-2.2188-2.125-3.3281-5.0625-3.3281-8.8125 0-3.7578 1.1094-6.6953 3.3281-8.8125 2.2266-2.125 5.3164-3.1875 9.2656-3.1875z"/>
  </symbol>
  <symbol id="q" overflow="visible">
   <path d="m21.375-22.141v5.5469c-1.5742-0.65625-3.0898-1.1445-4.5469-1.4688-1.4492-0.32031-2.8203-0.48438-4.1094-0.48438-1.3867 0-2.418 0.17188-3.0938 0.51562-0.67969 0.34375-1.0156 0.88281-1.0156 1.6094 0 0.58594 0.25391 1.0312 0.76562 1.3438 0.50781 0.3125 1.4258 0.54297 2.75 0.6875l1.2812 0.1875c3.7383 0.48047 6.2539 1.2656 7.5469 2.3594 1.3008 1.0859 1.9531 2.7891 1.9531 5.1094 0 2.4375-0.90234 4.2734-2.7031 5.5-1.793 1.2188-4.4766 1.8281-8.0469 1.8281-1.5117 0-3.0742-0.12109-4.6875-0.35938-1.6055-0.23828-3.2578-0.59766-4.9531-1.0781v-5.5469c1.4453 0.71094 2.9375 1.2422 4.4688 1.5938 1.5312 0.35547 3.0859 0.53125 4.6719 0.53125 1.4258 0 2.5-0.19531 3.2188-0.59375 0.71875-0.39453 1.0781-0.97656 1.0781-1.75 0-0.65625-0.25-1.1406-0.75-1.4531-0.49219-0.32031-1.4766-0.57031-2.9531-0.75l-1.2969-0.17188c-3.25-0.40625-5.5312-1.1562-6.8438-2.25-1.3047-1.1016-1.9531-2.7812-1.9531-5.0312 0-2.4141 0.82812-4.207 2.4844-5.375 1.6641-1.1758 4.2109-1.7656 7.6406-1.7656 1.3516 0 2.7695 0.10547 4.25 0.3125 1.4766 0.19922 3.0938 0.51562 4.8438 0.95312z"/>
  </symbol>
  <symbol id="d" overflow="visible">
   <path d="m3.8438-30.469h13.031c3.875 0 6.8477 0.85938 8.9219 2.5781 2.082 1.7188 3.125 4.1719 3.125 7.3594 0 3.1992-1.043 5.6562-3.125 7.375-2.0742 1.7188-5.0469 2.5781-8.9219 2.5781h-5.1875v10.578h-7.8438zm7.8438 5.6875v8.5156h4.3594c1.5195 0 2.6914-0.36719 3.5156-1.1094 0.83203-0.73828 1.25-1.7891 1.25-3.1562 0-1.3633-0.41797-2.4102-1.25-3.1406-0.82422-0.73828-1.9961-1.1094-3.5156-1.1094z"/>
  </symbol>
  <symbol id="p" overflow="visible">
   <path d="m3.5156-22.859h7.2969v22.859h-7.2969zm0-8.8906h7.2969v5.9531h-7.2969z"/>
  </symbol>
  <symbol id="o" overflow="visible">
   <path d="m26.484-13.922v13.922h-7.3438v-10.656c0-1.9688-0.046875-3.3281-0.14062-4.0781-0.085938-0.75-0.23438-1.3008-0.45312-1.6562-0.28125-0.47656-0.66797-0.84766-1.1562-1.1094-0.49219-0.25781-1.0469-0.39062-1.6719-0.39062-1.5312 0-2.7344 0.58984-3.6094 1.7656-0.86719 1.168-1.2969 2.793-1.2969 4.875v11.25h-7.2969v-22.859h7.2969v3.3438c1.1016-1.332 2.2734-2.3125 3.5156-2.9375 1.2383-0.63281 2.6016-0.95312 4.0938-0.95312 2.6445 0 4.6484 0.8125 6.0156 2.4375 1.3633 1.6172 2.0469 3.9648 2.0469 7.0469z"/>
  </symbol>
  <symbol id="n" overflow="visible">
   <path d="m18.547-31.75v4.7969h-4.0312c-1.043 0-1.7656 0.1875-2.1719 0.5625-0.40625 0.36719-0.60938 1.0117-0.60938 1.9375v1.5938h6.25v5.2188h-6.25v17.641h-7.3125v-17.641h-3.625v-5.2188h3.625v-1.5938c0-2.4883 0.69141-4.3281 2.0781-5.5156 1.3945-1.1875 3.5469-1.7812 6.4531-1.7812z"/>
  </symbol>
  <symbol id="m" overflow="visible">
   <path d="m26.484-13.922v13.922h-7.3438v-10.609c0-2-0.046875-3.375-0.14062-4.125-0.085938-0.75-0.23438-1.3008-0.45312-1.6562-0.28125-0.47656-0.66797-0.84766-1.1562-1.1094-0.49219-0.25781-1.0469-0.39062-1.6719-0.39062-1.5312 0-2.7344 0.58984-3.6094 1.7656-0.86719 1.168-1.2969 2.793-1.2969 4.875v11.25h-7.2969v-31.75h7.2969v12.234c1.1016-1.332 2.2734-2.3125 3.5156-2.9375 1.2383-0.63281 2.6016-0.95312 4.0938-0.95312 2.6445 0 4.6484 0.8125 6.0156 2.4375 1.3633 1.6172 2.0469 3.9648 2.0469 7.0469z"/>
  </symbol>
  <symbol id="l" overflow="visible">
   <path d="m3.8438-30.469h8.7656l11.078 20.891v-20.891h7.4531v30.469h-8.7656l-11.094-20.906v20.906h-7.4375z"/>
  </symbol>
  <symbol id="k" overflow="visible">
   <path d="m3.5156-22.859h7.2969v22.453c0 3.0625-0.73438 5.3945-2.2031 7-1.4688 1.6133-3.6016 2.4219-6.3906 2.4219h-3.6094v-4.7969h1.2656c1.3828 0 2.3359-0.3125 2.8594-0.9375 0.51953-0.625 0.78125-1.8555 0.78125-3.6875zm0-8.8906h7.2969v5.9531h-7.2969z"/>
  </symbol>
 </defs>
 <g>
  <path d="m350 12.539c-147.52 0-267.46 119.94-267.46 267.46 0 147.44 119.94 267.46 267.46 267.46 147.44 0 267.46-120.02 267.46-267.46 0-147.52-120.02-267.46-267.46-267.46zm0 518.21c-138.25 0-250.75-112.5-250.75-250.75s112.5-250.75 250.75-250.75 250.75 112.5 250.75 250.75-112.5 250.75-250.75 250.75z"/>
  <path d="m350 54.328c-124.45 0-225.67 101.22-225.67 225.67s101.22 225.67 225.67 225.67 225.67-101.22 225.67-225.67-101.22-225.67-225.67-225.67zm0 434.63c-115.26 0-208.96-93.781-208.96-208.96 0-115.26 93.695-208.96 208.96-208.96 115.18 0 208.96 93.695 208.96 208.96 0 115.18-93.781 208.96-208.96 208.96z"/>
  <path d="m349.99 136.08c4.6211 0 8.3594-3.7422 8.3594-8.3594v-24.031c0-4.6172-3.7383-8.3594-8.3594-8.3594-4.6211 0-8.3594 3.7422-8.3594 8.3594v24.031c0.003907 4.6172 3.7422 8.3594 8.3594 8.3594z"/>
  <path d="m349.99 423.91c-4.6211 0-8.3594 3.7422-8.3594 8.3594v24.031c0 4.6172 3.7383 8.3594 8.3594 8.3594 4.6211 0 8.3594-3.7422 8.3594-8.3594v-24.031c0-4.6133-3.7383-8.3594-8.3594-8.3594z"/>
  <path d="m468.75 149.42-16.992 16.988c-3.2656 3.2617-3.2656 8.5547 0 11.82s8.5547 3.2656 11.82 0l16.992-16.988c3.2656-3.2617 3.2656-8.5547 0-11.82s-8.5547-3.2656-11.82 0z"/>
  <path d="m236.4 381.76-16.992 16.992c-3.2656 3.2656-3.2656 8.5547 0 11.82 3.2656 3.2656 8.5547 3.2656 11.82 0l16.992-16.992c3.2656-3.2656 3.2656-8.5547 0-11.82-3.2656-3.2656-8.5547-3.2656-11.82 0z"/>
  <path d="m493.9 279.99c0 4.6172 3.7383 8.3594 8.3594 8.3594h24.031c4.6211 0 8.3594-3.7422 8.3594-8.3594 0-4.6172-3.7383-8.3594-8.3594-8.3594h-24.031c-4.6211 0.003907-8.3594 3.7461-8.3594 8.3594z"/>
  <path d="m197.71 271.63-24.031-0.003906c-4.6133 0-8.3594 3.7422-8.3594 8.3594s3.7383 8.3594 8.3594 8.3594l24.031 0.003906c4.6133 0 8.3594-3.7422 8.3594-8.3594-0.003906-4.6172-3.7422-8.3594-8.3594-8.3594z"/>
  <path d="m463.56 381.75c-3.2656-3.2656-8.5547-3.2656-11.82 0-3.2656 3.2656-3.2656 8.5547 0 11.82l16.992 16.992c3.2656 3.2656 8.5547 3.2656 11.82 0 3.2656-3.2656 3.2656-8.5547 0-11.82z"/>
  <path d="m231.24 149.4c-3.2656-3.2656-8.5547-3.2617-11.82-0.003906-3.2656 3.2656-3.2656 8.5586 0 11.824 8.1016 5.5547 19.07 26.707 28.805 16.996 3.2656-3.2656 3.2656-8.5586 0-11.824z"/>
  <path d="m358.36 248.32h-0.007813v-76c0-4.6172-3.7383-8.3594-8.3594-8.3594-4.6211 0-8.3594 3.7422-8.3594 8.3594v76.004c-14.121 3.5977-24.484 16.465-24.484 31.676 0 11.617 6.1016 21.898 15.297 27.664l-30.172 96.121c-1.3359 4.4297 1.0859 9.1094 5.5156 10.531 4.332 1.3008 9.1055-1.0742 10.449-5.5156l30.172-96.035c0.5 0.082031 1.0859 0.082031 1.5898 0.082031 18.137 0 32.848-14.793 32.848-32.848 0-15.211-10.363-28.086-24.488-31.68zm-8.3594 47.812c-9.0273 0-16.133-7.5508-16.133-16.133 0-8.8359 7.1484-16.082 16.059-16.125 0.023438 0 0.042969 0.011719 0.066407 0.011719 0.023437 0 0.046874-0.015625 0.070312-0.015625 8.8281 0.035156 16.066 7.2852 16.066 16.125 0.003906 8.9141-7.3242 16.137-16.129 16.137z"/>
  <use x="70" y="685.375" xlink:href="#s"/>
  <use x="100.667969" y="685.375" xlink:href="#c"/>
  <use x="121.28125" y="685.375" xlink:href="#b"/>
  <use x="149.625" y="685.375" xlink:href="#j"/>
  <use x="177.824219" y="685.375" xlink:href="#a"/>
  <use x="197.800781" y="685.375" xlink:href="#b"/>
  <use x="226.144531" y="685.375" xlink:href="#i"/>
  <use x="270.609375" y="685.375" xlink:href="#h"/>
  <use x="300.523438" y="685.375" xlink:href="#g"/>
  <use x="342.316406" y="685.375" xlink:href="#f"/>
  <use x="374.660156" y="685.375" xlink:href="#b"/>
  <use x="403.003906" y="685.375" xlink:href="#r"/>
  <use x="427.773438" y="685.375" xlink:href="#a"/>
  <use x="447.75" y="685.375" xlink:href="#e"/>
  <use x="476.460938" y="685.375" xlink:href="#c"/>
  <use x="497.074219" y="685.375" xlink:href="#q"/>
  <use x="536.496094" y="685.375" xlink:href="#d"/>
  <use x="567.125" y="685.375" xlink:href="#e"/>
  <use x="595.835938" y="685.375" xlink:href="#p"/>
  <use x="610.160156" y="685.375" xlink:href="#o"/>
  <use x="639.914062" y="685.375" xlink:href="#a"/>
  <use x="70" y="727.164063" xlink:href="#n"/>
  <use x="195.597656" y="727.164063" xlink:href="#a"/>
  <use x="215.574219" y="727.164063" xlink:href="#m"/>
  <use x="288.21875" y="727.164063" xlink:href="#l"/>
  <use x="425.957031" y="727.164063" xlink:href="#d"/>
  <use x="505.910156" y="727.164063" xlink:href="#k"/>
  <use x="573.347656" y="727.164063" xlink:href="#a"/>
 </g>
</svg>
