<?xml version="1.0" encoding="UTF-8"?>
<svg width="700pt" height="700pt" version="1.1" viewBox="0 0 700 700" xmlns="http://www.w3.org/2000/svg">
 <path d="m586.25 140h-472.5c-4.832 0-8.75 3.918-8.75 8.75v245c0 2.3203 0.92188 4.5469 2.5625 6.1875s3.8672 2.5625 6.1875 2.5625h43.75v26.25c0 2.3203 0.92188 4.5469 2.5625 6.1875s3.8672 2.5625 6.1875 2.5625h52.5c2.3203 0 4.5469-0.92188 6.1875-2.5625s2.5625-3.8672 2.5625-6.1875v-26.25h245v26.25c0 2.3203 0.92188 4.5469 2.5625 6.1875s3.8672 2.5625 6.1875 2.5625h52.5c2.3203 0 4.5469-0.92188 6.1875-2.5625s2.5625-3.8672 2.5625-6.1875v-26.25h43.75c2.3203 0 4.5469-0.92188 6.1875-2.5625s2.5625-3.8672 2.5625-6.1875v-245c0-2.3203-0.92188-4.5469-2.5625-6.1875s-3.8672-2.5625-6.1875-2.5625zm-376.25 280h-35v-17.5h35zm315 0h-35v-17.5h35zm52.5-35h-455v-227.5h455zm-428.75-17.5h402.5c2.3203 0 4.5469-0.92188 6.1875-2.5625s2.5625-3.8672 2.5625-6.1875v-175c0-2.3203-0.92188-4.5469-2.5625-6.1875s-3.8672-2.5625-6.1875-2.5625h-402.5c-4.832 0-8.75 3.918-8.75 8.75v175c0 2.3203 0.92188 4.5469 2.5625 6.1875s3.8672 2.5625 6.1875 2.5625zm8.75-175h385v157.5h-385zm127.75 45.5c3.8672 2.8984 4.6484 8.3828 1.75 12.25l-52.5 70c-2.8984 3.8672-8.3828 4.6484-12.25 1.75s-4.6484-8.3828-1.75-12.25l52.5-70c1.3906-1.8555 3.4648-3.082 5.7617-3.4102 2.2969-0.33203 4.6328 0.26953 6.4883 1.6602zm52.5 0c3.9922 2.6719 5.0859 8.0586 2.4492 12.074l-35 52.5c-1.1641 2.1719-3.1875 3.75-5.5742 4.3516-2.3867 0.59766-4.918 0.16797-6.9688-1.1914-2.0508-1.3633-3.4375-3.5234-3.8125-5.957-0.37891-2.4297 0.28516-4.9102 1.832-6.8281l35-52.5c2.5391-3.9062 7.6953-5.1367 11.723-2.8008zm70 0c3.8672 2.8984 4.6484 8.3828 1.75 12.25l-52.5 70c-2.8984 3.8672-8.3828 4.6484-12.25 1.75s-4.6484-8.3828-1.75-12.25l52.5-70c2.8984-3.8672 8.3828-4.6484 12.25-1.75zm70 0c3.9922 2.6719 5.0859 8.0586 2.4492 12.074l-35 52.5c-1.1641 2.1719-3.1875 3.75-5.5742 4.3516-2.3867 0.59766-4.918 0.16797-6.9688-1.1914-2.0508-1.3633-3.4375-3.5234-3.8125-5.957-0.37891-2.4297 0.28516-4.9102 1.832-6.8281l35-52.5c2.5391-3.9062 7.6953-5.1367 11.723-2.8008z"/>
</svg>
